@startuml
'https://plantuml.com/class-diagram

class Client

abstract class Component {
    operation()
    add(Component)
    remove(Component)
    getChild(int)
}

class Leaf {
    operation()
}

class Composite {
    add(Component)
    remove(Component)
    getChild(int)
    operation()
}

Client -> Component
Component <|-- Leaf
Component <|-- Composite

@enduml