@startuml
'https://plantuml.com/class-diagram

abstract Client

interface AbstractProductA
interface AbstractProductB

class ProductA1
class ProductA2
class ProductB1
class ProductB2

interface AbstractFactory {
    createProductA()
    createProductB()

}

class ConcreteFactory1 {
    createProductA()
    createProductB()
}

class ConcreteFactory2 {
    createProductA()
    createProductB()
}

Client -> AbstractProductA
Client -> AbstractProductB
AbstractFactory <- Client

AbstractFactory <|.. ConcreteFactory1
AbstractFactory <|.. ConcreteFactory2

AbstractProductA <|... ProductA1
AbstractProductA <|... ProductA2

AbstractProductB <|... ProductB1
AbstractProductB <|... ProductB2

ConcreteFactory1 --> ProductA1
ConcreteFactory1 --> ProductB1

ConcreteFactory2 --> ProductA2
ConcreteFactory2 --> ProductB2

@enduml